HIERARCHY
ROOT root
{
	OFFSET	0	13.1	24.9
	CHANNELS 6  Xposition Yposition Zposition Xrotation Yrotation Zrotation
	JOINT spine_1
	{
		OFFSET	0	9.99999	0
		CHANNELS 3  Xrotation Yrotation Zrotation
		JOINT spine_2
		{
			OFFSET	0	112	-10
			CHANNELS 3  Xrotation Yrotation Zrotation
			JOINT spine_3
			{
				OFFSET	0	206.5	19.3
				CHANNELS 3  Xrotation Yrotation Zrotation
				JOINT spine_4
				{
					OFFSET	0	110.4	14.6
					CHANNELS 3  Xrotation Yrotation Zrotation
					JOINT neck_1
					{
						OFFSET	0	71.8	-50.3
						CHANNELS 3  Xrotation Yrotation Zrotation
						JOINT neck_2
						{
							OFFSET	0	86.2	-25.8
							CHANNELS 3  Xrotation Yrotation Zrotation
							JOINT head_ee
							{
								OFFSET	0	179.8	-8.7
								CHANNELS 3  Xrotation Yrotation Zrotation
								End Site
								{
									OFFSET	1	0	0
								}
							}
						}
					}
					JOINT left_clavicle
					{
						OFFSET	-43.2	22.4	-70.8
						CHANNELS 3  Xrotation Yrotation Zrotation
						JOINT left_shoulder
						{
							OFFSET	-93.9	-5.79999	48.7
							CHANNELS 3  Xrotation Yrotation Zrotation
							JOINT left_elbow
							{
								OFFSET	-291.4	-30.8	15.2
								CHANNELS 3  Xrotation Yrotation Zrotation
								JOINT left_lowarm_twist
								{
									OFFSET	-110.7	-3.89999	13.6
									CHANNELS 3  Xrotation Yrotation Zrotation
									JOINT left_hand
									{
										OFFSET	-110.7	-3.89999	13.6
										CHANNELS 3  Xrotation Yrotation Zrotation
										JOINT left_ee
										{
											OFFSET	-80.8	-5.10001	12.1
											CHANNELS 3  Xrotation Yrotation Zrotation
											End Site
											{
												OFFSET	1	0	0
											}
										}
									}
								}
							}
						}
					}
					JOINT right_clavicle
					{
						OFFSET	43.2	22.4	-70.8
						CHANNELS 3  Xrotation Yrotation Zrotation
						JOINT right_shoulder
						{
							OFFSET	93.9	-5.79999	48.7
							CHANNELS 3  Xrotation Yrotation Zrotation
							JOINT right_elbow
							{
								OFFSET	291.4	-30.8	15.2
								CHANNELS 3  Xrotation Yrotation Zrotation
								JOINT right_lowarm_twist
								{
									OFFSET	110.7	-3.89999	13.6
									CHANNELS 3  Xrotation Yrotation Zrotation
									JOINT right_hand
									{
										OFFSET	110.7	-3.89999	13.6
										CHANNELS 3  Xrotation Yrotation Zrotation
										JOINT right_ee
										{
											OFFSET	80.8	-5.10001	12.1
											CHANNELS 3  Xrotation Yrotation Zrotation
											End Site
											{
												OFFSET	1	0	0
											}
										}
									}
								}
							}
						}
					}
				}
			}
		}
	}
	JOINT left_hip
	{
		OFFSET	-82.8	-127.5	0.300001
		CHANNELS 3  Xrotation Yrotation Zrotation
		JOINT left_knee
		{
			OFFSET	-28.2	-396.7	2.2
			CHANNELS 3  Xrotation Yrotation Zrotation
			JOINT left_ankle
			{
				OFFSET	-11.7	-411.3	35.4
				CHANNELS 3  Xrotation Yrotation Zrotation
				JOINT left_toes
				{
					OFFSET	0	-60	-88.6
					CHANNELS 3  Xrotation Yrotation Zrotation
					JOINT left_foot_ee
					{
						OFFSET	-22.5	-16.5	-42.2
						CHANNELS 3  Xrotation Yrotation Zrotation
						End Site
						{
							OFFSET	1	0	0
						}
					}
				}
			}
		}
	}
	JOINT right_hip
	{
		OFFSET	82.8	-127.5	0.300001
		CHANNELS 3  Xrotation Yrotation Zrotation
		JOINT right_knee
		{
			OFFSET	28.2	-396.7	2.2
			CHANNELS 3  Xrotation Yrotation Zrotation
			JOINT right_ankle
			{
				OFFSET	11.7	-411.3	35.4
				CHANNELS 3  Xrotation Yrotation Zrotation
				JOINT right_toes
				{
					OFFSET	0	-60	-88.6
					CHANNELS 3  Xrotation Yrotation Zrotation
					JOINT right_foot_ee
					{
						OFFSET	22.5	-16.5	-42.2
						CHANNELS 3  Xrotation Yrotation Zrotation
						End Site
						{
							OFFSET	1	0	0
						}
					}
				}
			}
		}
	}
}
MOTION
Frames: 5
Frame Time: 0.02
3177.02 653.055 -1669.29 8.330266599 74.9085352789 -7.6494791367 -2.82175 0.490958 1.3403 -2.82084 0.404684 1.36882 -2.80961 0.0381064 1.42687 -2.81235 0.262953 1.40295 -5.8232 1.6416 -0.924985 -5.81793 3.7151 -0.631697 -0.0 0.0 -0.0 0.154303 17.2574 2.26079 -19.4434 -24.1852 71.4753 0.328128 -9.23259 0.0264946 13.1957 0.274906 -1.65951 -0.989155 28.8548 5.90856 -0.0 0.0 -0.0 11.7324 26.3741 -22.7287 28.9034 21.4021 -53.3878 2.89955 55.1433 -1.51426 -23.3077 1.37495 -2.62335 -5.11715 -13.8062 27.4944 0.0 0.0 0.0 23.5449 12.6481 -2.30016 3.60115 -0.164959 -0.527833 -12.0635 15.8427 1.81713 -16.3097 0.0 0.0 -0.0 0.0 -0.0 -26.6063 25.0902 -0.32528 -0.496798 -0.0201371 -0.0735795 36.846 -20.9611 4.74792 -18.2901 0.0 0.0 0.0 0.0 0.0 
3130.63737386 658.957 -1664.40620203 8.8823126472 73.4775565518 -8.00660712821 -2.94208 0.323417 1.17766 -2.94134 0.24783 1.19585 -2.93502 -0.0715555 1.21916 -2.93707 0.121871 1.21516 -3.99603 3.12727 2.20631 -3.98089 4.02653 2.7667 -0.0 0.0 -0.0 0.863366 16.9412 3.32564 -17.1271 -24.8524 71.1717 0.415416 -11.6285 0.0423009 12.8117 0.272339 -1.61052 -1.12311 28.935 5.2197 -0.0 0.0 -0.0 11.8021 25.9122 -22.9396 24.5842 21.23 -52.9646 2.96016 55.6967 -1.56416 -22.6335 1.32063 -2.55619 -4.83158 -13.7147 25.5298 0.0 0.0 0.0 22.3134 12.1211 -1.90406 0.148586 -0.00614702 -0.0219732 -10.1762 14.5442 1.52541 -13.6304 0.0 0.0 -0.0 0.0 -0.0 -26.6925 25.4452 0.349973 -4.59548 -0.161743 -0.686534 36.8027 -23.0807 4.796 -18.2236 0.0 0.0 0.0 0.0 0.0 
3109.99691163 665.304 -1660.55022455 7.84285960325 71.9033400629 -7.51199021666 -2.814 0.459708 0.96878 -2.81356 0.397133 0.996065 -2.80579 0.126983 1.06476 -2.80725 0.29354 1.03135 -2.5514 4.02896 3.4972 -2.51577 4.55272 4.21287 -0.0 0.0 -0.0 0.673598 16.7696 3.01485 -15.2743 -25.0223 71.2159 0.573306 -15.8547 0.0798321 13.1131 0.274381 -1.64897 -1.11152 28.7925 5.22226 -0.0 0.0 -0.0 11.9357 26.6153 -23.1637 20.9044 20.6857 -51.6823 2.98219 55.8941 -1.58238 -23.0443 1.35363 -2.59718 -4.64956 -14.7372 23.5783 0.0 0.0 0.0 22.4761 11.8982 -1.95387 -5.29933 0.181629 0.79272 -3.74792 12.9057 0.554581 -13.8602 0.0 0.0 -0.0 0.0 -0.0 -26.9204 27.1899 2.47303 -6.37249 -0.209433 -0.955062 35.7889 -23.3016 4.69818 -18.3486 0.0 0.0 0.0 0.0 0.0 
3081.27668091 668.281 -1657.06382238 8.12946921676 71.7725086714 -7.58514968965 -2.66933 0.22796 1.04794 -2.66873 0.160819 1.06032 -2.66494 -0.115331 1.06623 -2.66652 0.0544977 1.07106 -2.10264 3.46146 4.33405 -2.05309 2.8211 5.01062 -0.0 0.0 -0.0 0.38858 18.4354 2.74309 -13.5271 -25.3036 70.8176 0.660413 -18.1156 0.105283 11.8909 0.264848 -1.49315 -1.27762 28.8392 4.34705 -0.0 0.0 -0.0 11.1243 26.4409 -21.3428 17.3543 18.6291 -53.449 3.11773 57.0653 -1.69538 -22.1748 1.28413 -2.51013 -4.27731 -11.9987 22.7767 0.0 0.0 0.0 19.9625 11.4341 -1.00013 -4.56703 0.160912 0.682245 0.532934 14.681 -0.0783621 -13.0175 0.0 0.0 -0.0 0.0 -0.0 -25.4221 25.4869 2.07158 -10.2862 -0.284953 -1.55077 34.8442 -25.4697 4.65887 -18.1026 0.0 0.0 0.0 0.0 0.0 
3023.96449241 677.871 -1655.94486073 10.3930920061 73.1314223356 -9.75949061615 -2.02202 -0.1574 0.5316 -2.02188 -0.190908 0.520507 -2.02357 -0.312418 0.458006 -2.02378 -0.236164 0.501598 -1.97663 4.97694 5.71712 -1.8896 4.44525 6.66133 -0.0 0.0 -0.0 0.766834 20.732 3.52306 -9.83266 -25.755 70.1286 0.730263 -19.8876 0.128028 8.0227 0.212812 -1.00188 -1.44768 28.6937 3.3678 -0.0 0.0 -0.0 10.205 25.0887 -19.4181 8.5 15.5615 -55.0096 3.24153 58.0741 -1.79988 -21.1895 1.20697 -2.41023 -3.90069 -12.1921 20.0765 0.0 0.0 0.0 15.6998 11.3102 0.0407898 -7.73677 0.240379 1.16213 9.73289 8.89768 -1.38492 -12.7279 0.0 0.0 -0.0 0.0 -0.0 -20.9136 25.8823 2.09115 -23.2971 -0.241937 -3.54236 34.8365 -25.0846 4.64695 -18.8053 0.0 0.0 0.0 0.0 0.0 
